<?xml version="1.0" encoding="UTF-8"?>
<svg version="1.1" xmlns="http://www.w3.org/2000/svg" width="256" height="246">
<path d="M0 0 C84.48 0 168.96 0 256 0 C256 81.18 256 162.36 256 246 C171.52 246 87.04 246 0 246 C0 164.82 0 83.64 0 0 Z " fill="#FEFEFE" transform="translate(0,0)"/>
<path d="M0 0 C0.71148193 -0.00040283 1.42296387 -0.00080566 2.15600586 -0.0012207 C28.66031413 0.08524852 50.38041114 10.3086706 69.5625 28.4375 C70.20316406 29.0253125 70.84382812 29.613125 71.50390625 30.21875 C87.44310911 45.33781491 97.1685414 68.2622489 97.8984375 90.0390625 C98.20871794 114.05442943 94.46959056 135.83500426 79.5625 155.4375 C77.90693916 157.11519898 76.24138808 158.78314503 74.5625 160.4375 C69.14675245 156.70174689 63.72319968 152.55753953 61.87044144 145.98095703 C60.83846287 138.83982606 61.16557734 131.62879379 61.34765625 124.4375 C61.36031363 122.11013217 61.36692384 119.78272435 61.36778259 117.45532227 C61.38286259 111.35982604 61.46516795 105.26727412 61.56640625 99.17266846 C61.71983703 89.39193545 61.78114479 79.61061541 61.82180595 69.82885742 C61.84735191 66.41566264 61.90831436 63.00443352 61.97364807 59.59179688 C61.9939367 57.50782206 62.01327108 55.42383765 62.03149414 53.33984375 C62.05897232 52.39124985 62.0864505 51.44265594 62.11476135 50.46531677 C62.12437893 46.38484681 62.11102646 44.18329235 59.65046692 40.83784485 C55.2484653 38.84160575 51.46265647 38.98291255 46.68603516 39.12963867 C45.19952454 39.15027374 45.19952454 39.15027374 43.6829834 39.17132568 C41.53250986 39.20214824 39.38214344 39.2413213 37.23195267 39.28786278 C33.81628865 39.35617421 30.40194087 39.39017832 26.98568726 39.41316223 C17.2736225 39.47968409 7.56319725 39.5676337 -2.14697266 39.77661133 C-8.0926571 39.90207044 -14.035152 39.95294857 -19.98210526 39.95708656 C-22.23642923 39.97251569 -24.49075163 40.01505027 -26.74399948 40.08638573 C-46.18669555 40.68426353 -46.18669555 40.68426353 -54.42992592 32.96323872 C-57.30053791 29.9324467 -59.96300007 26.79939724 -62.4375 23.4375 C-46.14214591 6.75391588 -22.71148706 -0.01313562 0 0 Z " fill="#C9C9C9" transform="translate(129.4375,32.5625)"/>
<path d="M0 0 C1.04458319 0.87151615 2.08546407 1.74746967 3.125 2.625 C3.99511719 3.35589844 3.99511719 3.35589844 4.8828125 4.1015625 C5.58148438 4.72804688 6.28015625 5.35453125 7 6 C8.01936142 6.8176181 9.03872284 7.63523621 10.088974 8.47763062 C13.45874837 11.89002514 13.70461703 14.68774623 13.75444031 19.36552429 C13.73436417 20.319496 13.71428802 21.27346771 13.69360352 22.25634766 C13.69620178 23.27492355 13.69880005 24.29349945 13.70147705 25.34294128 C13.70318878 27.54788764 13.69110568 29.75287869 13.66674995 31.95769119 C13.62855359 35.44627209 13.62684201 38.93320437 13.63450623 42.42196655 C13.64383081 49.82323604 13.60489274 57.22387475 13.5625 64.625 C13.51782543 73.20848395 13.49280185 81.79141232 13.50706291 90.37501144 C13.50393999 93.81440031 13.47018343 97.25261407 13.43495178 100.69180298 C13.43383048 102.79534884 13.43403795 104.89889598 13.43579102 107.00244141 C13.41773911 107.96046158 13.39968719 108.91848175 13.38108826 109.90553284 C13.41186875 114.00081447 13.448676 116.25101922 15.91798401 119.60560608 C20.31664283 121.59568762 24.10512784 121.45442513 28.87646484 121.30786133 C29.86747192 121.29410461 30.858479 121.2803479 31.8795166 121.26617432 C34.02999014 121.23535176 36.18035656 121.1961787 38.33054733 121.14963722 C41.74621135 121.08132579 45.16055913 121.04732168 48.57681274 121.02433777 C58.2888775 120.95781591 67.99930275 120.8698663 77.70947266 120.66088867 C83.6551571 120.53542956 89.597652 120.48455143 95.54460526 120.48041344 C97.79892923 120.46498431 100.05325163 120.42244973 102.30649948 120.35111427 C121.74919555 119.75323647 121.74919555 119.75323647 129.99242592 127.47426128 C132.86303791 130.5050533 135.52550007 133.63810276 138 137 C122.24666626 153.1130216 99.89018482 159.96511724 77.8347168 160.29272461 C55.08989868 160.41001819 55.08989868 160.41001819 44 156 C43.34789551 155.74798828 42.69579102 155.49597656 42.02392578 155.23632812 C27.50635762 149.55864848 16.17656722 141.75845104 5 131 C4.34128906 130.41605469 3.68257812 129.83210937 3.00390625 129.23046875 C-5.73106794 121.26207428 -11.62081012 109.82633053 -16 99 C-16.28359375 98.35160156 -16.5671875 97.70320313 -16.859375 97.03515625 C-17.68364829 95.04596613 -18.35831072 93.05558091 -19 91 C-19.27972656 90.13503906 -19.55945312 89.27007812 -19.84765625 88.37890625 C-26.59857658 63.22780306 -22.22785609 35.94888406 -9.5 13.5625 C-6.6160538 8.8158714 -3.4768114 4.33009478 0 0 Z " fill="#C9C9C9" transform="translate(55,67)"/>
<path d="M0 0 C3.86651365 1.37305863 6.25935885 3.97356452 9.06884766 6.84606934 C9.68405273 7.45908401 10.29925781 8.07209869 10.93310547 8.70368958 C12.96101643 10.72929173 14.97429021 12.76880249 16.98754883 14.80895996 C18.39207622 16.21841033 19.79741699 17.62705058 21.20353699 19.03491211 C24.14568663 21.98469955 27.08125397 24.94082619 30.01171875 27.90222168 C33.77738846 31.70755685 37.55383307 35.5019592 41.33453846 39.29235077 C44.93076209 42.89852192 48.52198657 46.50965321 52.11254883 50.12145996 C52.80256296 50.81486984 53.4925771 51.50827972 54.20350075 52.22270203 C56.14315232 54.17386772 58.07925493 56.12847944 60.01416016 58.08435059 C60.59540146 58.66828079 61.17664276 59.252211 61.77549744 59.85383606 C65.71801758 63.85030871 65.71801758 63.85030871 65.71801758 64.96520996 C53.88763658 64.98834343 42.05726093 65.00613019 30.22686195 65.01702213 C24.73399687 65.02224875 19.24114722 65.02934242 13.74829102 65.04064941 C8.45097069 65.0514861 3.15366524 65.05748847 -2.14366531 65.0600872 C-4.1683437 65.06194004 -6.19302125 65.06555795 -8.21769333 65.07094002 C-11.04561903 65.07816079 -13.87348263 65.07920046 -16.70141602 65.07873535 C-17.967006 65.08412827 -17.967006 65.08412827 -19.25816345 65.08963013 C-25.0538781 65.07926212 -25.0538781 65.07926212 -27.28198242 63.96520996 C-31.54768295 29.73722891 -31.54768295 29.73722891 -23.45851135 18.6625824 C-20.86532548 15.5372007 -18.08550762 12.70919681 -15.09448242 9.96520996 C-14.51787872 9.43211212 -13.94127502 8.89901428 -13.34719849 8.34976196 C-4.00450173 -0.06105076 -4.00450173 -0.06105076 0 0 Z " fill="#C9C9C9" transform="translate(103.281982421875,116.0347900390625)"/>
<path d="M0 0 C2.7836185 1.27192161 4.83135597 2.58187534 6.99097061 4.74487495 C7.5562781 5.30620034 8.12158558 5.86752573 8.7040236 6.44586098 C9.62037414 7.37095005 9.62037414 7.37095005 10.55523682 8.31472778 C11.21202289 8.96980501 11.86880897 9.62488224 12.54549766 10.29981029 C14.74898215 12.49999585 16.94523398 14.70726231 19.14160156 16.91455078 C20.71809667 18.49160992 22.29503208 20.06822902 23.87237549 21.6444397 C28.15748404 25.9289734 32.43638939 30.21965453 36.71423054 34.51144266 C41.18431571 38.99401313 45.66004872 43.47093696 50.13519287 47.94845581 C57.64706438 55.46584131 65.15543162 62.98670901 72.66113281 70.51025391 C80.39186138 78.25934201 88.12468886 86.00632563 95.86035156 93.75048828 C96.33721996 94.22788213 96.81408836 94.70527597 97.30540732 95.1971363 C99.69774175 97.59208082 102.09011755 99.98698403 104.4825139 102.38186669 C124.3280918 122.24817619 144.16633741 142.12179531 164 162 C162.44805246 165.32759923 160.69378051 167.48580485 158 170 C155.2163815 168.72807839 153.16864403 167.41812466 151.00902939 165.25512505 C150.4437219 164.69379966 149.87841442 164.13247427 149.2959764 163.55413902 C148.68507604 162.93741297 148.07417568 162.32068693 147.44476318 161.68527222 C146.78797711 161.03019499 146.13119103 160.37511776 145.45450234 159.70018971 C143.25101785 157.50000415 141.05476602 155.29273769 138.85839844 153.08544922 C137.28190333 151.50839008 135.70496792 149.93177098 134.12762451 148.3555603 C129.84251596 144.0710266 125.56361061 139.78034547 121.28576946 135.48855734 C116.81568429 131.00598687 112.33995128 126.52906304 107.86480713 122.05154419 C100.35293562 114.53415869 92.84456838 107.01329099 85.33886719 99.48974609 C77.60813862 91.74065799 69.87531114 83.99367437 62.13964844 76.24951172 C61.66278004 75.77211787 61.18591164 75.29472403 60.69459268 74.8028637 C58.30225825 72.40791918 55.90988245 70.01301597 53.5174861 67.61813331 C33.6719082 47.75182381 13.83366259 27.87820469 -6 8 C-4.44805246 4.67240077 -2.69378051 2.51419515 0 0 Z " fill="#C9C9C9" transform="translate(51,45)"/>
<path d="M0 0 C3.67222384 2.31509764 5.93795754 4.93841508 7.875 8.8125 C8.22531691 14.15483293 8.36835294 17.50403137 4.875 21.8125 C1.73757228 25.09585459 -0.55606365 27.12904366 -5.125 27.3125 C-9.75019374 27.00297461 -13.24157095 25.29233711 -16.875 22.4375 C-19.6628144 18.81334128 -20.3142016 15.81605628 -20 11.3125 C-19.39484379 7.12509725 -18.30926726 4.73858343 -15.125 1.8125 C-9.82347724 -1.52976435 -5.89148305 -2.23876356 0 0 Z " fill="#C9C9C9" transform="translate(151.125,100.1875)"/>
<path d="M0 0 C7.55326506 2.67938513 15.089438 11.07333224 19.14111328 17.75952148 C21.03725463 24.64934444 20.27628486 31.78309595 19.14111328 38.75952148 C12.40030903 33.23301814 6.33400039 27.0650259 0.20361328 20.88452148 C-0.87232398 19.80355875 -1.94849403 18.72282765 -3.02490234 17.64233398 C-5.63891964 15.01739508 -8.24977267 12.3893352 -10.85888672 9.75952148 C-9.40346298 6.70392047 -8.0388321 4.69515028 -5.48388672 2.44702148 C-4.60603516 1.64844727 -4.60603516 1.64844727 -3.71044922 0.83374023 C-1.85888672 -0.24047852 -1.85888672 -0.24047852 0 0 Z " fill="#CACACA" transform="translate(164.85888671875,133.240478515625)"/>
</svg>
